<svg width="461" height="24" viewBox="0 0 461 24" xmlns="http://www.w3.org/2000/svg"><title>moonfarmer_type</title><g fill="#D4D8E5" fill-rule="evenodd"><path d="M0 22.884L3.173.561h.364l9.078 18.317L21.602.56h.364l3.203 22.323h-2.201L20.782 6.92l-7.894 15.964h-.561l-8-16.086-2.171 16.086H0zM66.84 0c3.38 0 6.208 1.128 8.485 3.384 2.277 2.256 3.416 5.033 3.416 8.331 0 3.268-1.136 6.04-3.408 8.316-2.272 2.276-5.042 3.415-8.311 3.415-3.31 0-6.103-1.133-8.38-3.4-2.277-2.266-3.415-5.007-3.415-8.225 0-2.144.519-4.132 1.556-5.963 1.037-1.832 2.451-3.266 4.243-4.303A11.407 11.407 0 0 1 66.84 0zm.106 2.185c-1.65 0-3.213.43-4.69 1.29a9.275 9.275 0 0 0-3.462 3.475c-.83 1.457-1.245 3.08-1.245 4.871 0 2.651.919 4.89 2.756 6.715 1.836 1.826 4.05 2.74 6.64 2.74 1.731 0 3.333-.42 4.805-1.26a9.016 9.016 0 0 0 3.446-3.445c.825-1.457 1.237-3.075 1.237-4.856 0-1.77-.412-3.371-1.237-4.803-.825-1.431-1.986-2.577-3.484-3.437-1.497-.86-3.086-1.29-4.766-1.29zM120.472 0c3.38 0 6.209 1.128 8.486 3.384 2.277 2.256 3.415 5.033 3.415 8.331 0 3.268-1.136 6.04-3.408 8.316-2.271 2.276-5.042 3.415-8.31 3.415-3.31 0-6.103-1.133-8.38-3.4-2.277-2.266-3.416-5.007-3.416-8.225 0-2.144.52-4.132 1.556-5.963 1.038-1.832 2.452-3.266 4.243-4.303A11.407 11.407 0 0 1 120.472 0zm.106 2.185c-1.65 0-3.213.43-4.69 1.29a9.275 9.275 0 0 0-3.461 3.475c-.83 1.457-1.245 3.08-1.245 4.871 0 2.651.918 4.89 2.755 6.715 1.837 1.826 4.05 2.74 6.641 2.74 1.731 0 3.333-.42 4.805-1.26a9.016 9.016 0 0 0 3.446-3.445c.825-1.457 1.237-3.075 1.237-4.856 0-1.77-.412-3.371-1.237-4.803-.825-1.431-1.986-2.577-3.484-3.437-1.498-.86-3.087-1.29-4.767-1.29zm42.9 20.7V.56h.487L178.81 17.65V.56h2.2v22.323h-.5L165.786 6.01v16.875h-2.307zM213.074.56h11.187v2.2h-8.97v6.981h8.971v2.2h-8.971v10.942h-2.217V.561zm56.987 22.323h2.369L262.015.561h-.546l-10.55 22.323h2.49l8.334-17.588 8.317 17.588zm76.906 0L350.138.561h.365l9.077 18.317L368.567.56h.364l3.203 22.323h-2.2L367.746 6.92l-7.893 15.964h-.562l-8-16.086-2.17 16.086h-2.156zM403.179.561h12.797v2.2H405.41v6.981h10.475v2.186H405.41v8.756h10.475v2.2h-12.706V.561zM307.47 10.182l-1.266 2.15 8.012 10.38h2.762l-8.028-10.38c1.872-.01 3.339-.25 4.401-.721 1.063-.47 1.88-1.166 2.451-2.087.572-.92.857-1.988.857-3.202 0-1.457-.414-2.683-1.244-3.68-.83-.996-1.907-1.646-3.232-1.95-.88-.202-2.56-.303-5.038-.303h-4.447V22.71h2.231V2.574h3.93c1.528 0 2.62.131 3.278.394.658.264 1.189.701 1.594 1.313.404.612.607 1.293.607 2.041 0 .77-.2 1.465-.6 2.087a3.436 3.436 0 0 1-1.669 1.358c-.713.283-1.813.425-3.3.425l-.98-.008zM451.427 10.191l-1.266 2.15 8.013 10.38h2.762l-8.028-10.38c1.872-.01 3.339-.25 4.4-.72 1.063-.471 1.88-1.167 2.452-2.087.571-.92.857-1.988.857-3.202 0-1.457-.415-2.684-1.244-3.68-.83-.997-1.907-1.647-3.233-1.95-.88-.202-2.56-.304-5.038-.304h-4.446v22.323h2.23V2.584h3.931c1.528 0 2.62.131 3.278.394.658.263 1.189.7 1.593 1.313.405.612.607 1.292.607 2.04 0 .77-.2 1.465-.6 2.087a3.436 3.436 0 0 1-1.668 1.359c-.714.283-1.814.425-3.3.425l-.98-.008z"/></g></svg>